<?xml version="1.0" encoding="UTF-8" standalone="no"?>
<svg width="25px" height="25px" viewBox="0 0 25 25" version="1.1" xmlns="http://www.w3.org/2000/svg" xmlns:xlink="http://www.w3.org/1999/xlink" xmlns:sketch="http://www.bohemiancoding.com/sketch/ns">
    <!-- Generator: Sketch 3.2.2 (9983) - http://www.bohemiancoding.com/sketch -->
    <title>icon</title>
    <desc>Created with Sketch.</desc>
    <defs>
        <path d="M15.1277887,10.2716028 C14.113639,8.4941392 11.5786239,8.05210922 9.4679082,9.28356401 C7.3571925,10.5138209 6.46954192,12.9525326 7.48465002,14.7283192 C8.50095604,16.5053036 11.034294,16.9478128 13.1462076,15.7165976 C15.2569233,14.4846636 16.1426573,12.0485873 15.1277887,10.2716028 L15.1277887,10.2716028 Z M11.6734983,7.85325563 C13.2403633,7.76772462 14.7094789,8.37937911 15.5638276,9.58855271 L18.1192072,8.09691117 C16.7241223,5.93515699 14.2617005,4.7961811 11.6730191,4.88362877 L11.6734983,7.85325563 L11.6734983,7.85325563 Z M6.68085307,14.7688086 C6.07135696,13.4192396 6.28290769,11.8250567 7.13965222,10.4994459 L4.5933768,9.01379395 C3.22488554,11.2335271 2.97021008,13.9575818 4.12523396,16.2585335 L6.68085307,14.7688086 L6.68085307,14.7688086 Z M10.9391801,4.94088902 C9.81721847,5.07864904 8.68950692,5.44760631 7.62863869,6.06548994 C6.57016627,6.68433191 5.68946356,7.48621502 5.01048873,8.39926447 L7.5850348,9.90120806 C7.99855299,9.41605321 8.50694558,8.9855232 9.09991055,8.63956586 C9.69311509,8.29312936 10.3179444,8.06456752 10.9391801,7.94429703 L10.9391801,4.94088902 L10.9391801,4.94088902 Z M10.9391801,17.1466664 C9.3730338,17.2329161 7.90248069,16.6203033 7.04837155,15.4135255 L4.49299203,16.9025316 C5.88807688,19.0638067 8.35025908,20.2044596 10.9391801,20.1160536 L10.9391801,17.1466664 L10.9391801,17.1466664 Z M11.6734983,20.0599913 C12.7954599,19.920075 13.9229319,19.5525553 14.984998,18.9349112 C16.0441891,18.316788 16.9229752,17.5129882 17.60195,16.6025742 L15.0288415,15.100391 C14.6136462,15.5826709 14.1074098,16.0153571 13.5120491,16.361554 C12.920282,16.7053551 12.296411,16.9360732 11.6730191,17.0561041 L11.6734983,20.0599913 L11.6734983,20.0599913 Z M15.9323044,10.2308738 C16.5418006,11.5811616 16.3300102,13.1746257 15.4723074,14.5014344 L18.0202599,15.986128 C19.3894699,13.7649573 19.6439058,11.0416214 18.4888819,8.74019057 L15.9323044,10.2308738 L15.9323044,10.2308738 Z M3.66284108,16.958594 C3.28573932,16.2968667 3.02100142,15.5994416 2.85712747,14.8852458 C2.75650311,14.926454 2.6565975,14.9710164 2.56100436,15.0287558 C1.50540693,15.6430457 1.1436384,17.0074688 1.75313451,18.0726533 C2.36215146,19.1395148 3.71219493,19.5043991 4.76659445,18.8865155 C4.86314592,18.8321302 4.9515516,18.7674429 5.03636356,18.6998806 C4.50568986,18.2010696 4.04114075,17.6188837 3.66284108,16.958594 L3.66284108,16.958594 Z M14.5410529,20.001054 C12.3805042,21.0020302 10.0338004,21.1117591 7.99471968,20.4478756 C7.95446994,21.0813321 8.09222948,21.7344344 8.43099815,22.3274014 C9.34428399,23.9282926 11.3680315,24.4738223 12.9521464,23.5519083 C14.2116279,22.8149521 14.8105824,21.3688313 14.5410529,20.001054 L14.5410529,20.001054 Z M16.119897,19.0800983 C17.15513,19.9996165 18.6965993,20.2013451 19.9570392,19.464868 C21.5399562,18.5422352 22.0828485,16.4973974 21.1686044,14.8986624 C20.8300753,14.3042579 20.3384534,13.8564779 19.7744778,13.5764058 C19.3255015,15.6921601 18.0552388,17.6907585 16.119897,19.0800983 L16.119897,19.0800983 Z M18.9486394,8.04204675 C19.6748118,9.31207434 19.9941744,10.7150703 19.9500913,12.1142329 C20.5799519,12.0620039 21.2095729,11.8722545 21.7929545,11.5318075 C23.9036702,10.3001132 24.626249,7.57366268 23.4084547,5.44161674 C22.1885041,3.30909164 19.4896151,2.57884374 17.3788994,3.80934019 C16.7950385,4.15122463 16.3187499,4.60643165 15.9586584,5.13207597 C17.1783694,5.79404281 18.2243836,6.77273791 18.9486394,8.04204675 L18.9486394,8.04204675 Z M8.07330251,4.9991076 C10.2321742,3.99932923 12.5788779,3.88840247 14.6170003,4.5546818 C14.658448,3.91906904 14.5214072,3.26524801 14.1831177,2.6732393 C13.2669569,1.07282724 11.2436885,0.525141323 9.66101113,1.44873241 C8.40033168,2.18401154 7.80329382,3.63204904 8.07330251,4.9991076 L8.07330251,4.9991076 Z M6.49302093,5.92030286 C5.45706921,5.00030551 3.91703737,4.79953526 2.65539959,5.53577272 C1.07248261,6.4581659 0.530069401,8.50324334 1.4438344,10.1019783 C1.78332182,10.6949454 2.27446452,11.1422462 2.83939841,11.4242349 C3.28765597,9.30824102 4.55672079,7.30988219 6.49302093,5.92030286 L6.49302093,5.92030286 Z" id="path-1"></path>
    </defs>
    <g id="Page-1" stroke="none" stroke-width="1" fill="none" fill-rule="evenodd" sketch:type="MSPage">
        <g id="icon" sketch:type="MSArtboardGroup">
            <g id="Shape">
                <use fill="#3F7F4F" fill-rule="evenodd" sketch:type="MSShapeGroup" xlink:href="#path-1"></use>
                <use fill="none" xlink:href="#path-1"></use>
            </g>
        </g>
    </g>
</svg>