<?xml version="1.0" encoding="UTF-8" standalone="no"?>
<svg width="100px" height="100px" viewBox="0 0 100 100" version="1.1" xmlns="http://www.w3.org/2000/svg" xmlns:xlink="http://www.w3.org/1999/xlink" xmlns:sketch="http://www.bohemiancoding.com/sketch/ns">
    <!-- Generator: Sketch 3.2.2 (9983) - http://www.bohemiancoding.com/sketch -->
    <title>logo</title>
    <desc>Created with Sketch.</desc>
    <defs>
        <linearGradient x1="50%" y1="0%" x2="50%" y2="100%" id="linearGradient-1">
            <stop stop-color="#66CC7F" offset="0%"></stop>
            <stop stop-color="#19331F" offset="100%"></stop>
        </linearGradient>
        <path d="M61.35391,41.2957508 C57.1650305,33.9540532 46.6943161,32.1282772 37.9761426,37.2147209 C29.257969,42.2962167 25.5915862,52.3691564 29.784424,59.7039269 C33.9822097,67.0436454 44.4459971,68.8714005 53.1691185,63.7859464 C61.8872921,58.6975236 65.5457583,48.6354692 61.35391,41.2957508 L61.35391,41.2957508 Z M47.0861886,31.3069254 C53.5580223,30.9536452 59.6261086,33.4800442 63.1549402,38.4744568 L73.7097687,32.3133288 C67.9474617,23.3843441 57.7765891,18.6798785 47.0842094,19.0410753 L47.0861886,31.3069254 L47.0861886,31.3069254 Z M26.4643931,59.871166 C23.9469092,54.2968592 24.8207057,47.7121906 28.3594331,42.2368418 L17.8422085,36.1004533 C12.1897446,45.2689164 11.1378242,56.5204465 15.908575,66.0243775 L26.4643931,59.871166 L26.4643931,59.871166 Z M44.053135,19.2775851 C39.4189458,19.8465938 34.7610068,21.3705478 30.3791598,23.9226759 C26.0072085,26.4787622 22.3695234,29.7908881 19.5650621,33.5621793 L30.1990568,39.7658594 C31.9070667,37.7619589 34.0069491,35.9836828 36.4561523,34.5547286 C38.906345,33.1237952 41.4871618,32.1797354 44.053135,31.682966 L44.053135,19.2775851 L44.053135,19.2775851 Z M44.053135,69.6927523 C37.5842701,70.0490013 31.5102463,67.518644 27.9824042,62.5341271 L17.4275758,68.6843698 C23.1898827,77.6113753 33.3597658,82.322768 44.053135,81.9576128 L44.053135,69.6927523 L44.053135,69.6927523 Z M47.0861886,81.726051 C51.7203778,81.148136 56.3773272,79.6301195 60.7641221,77.078981 C65.1390421,74.5258634 68.7688106,71.2058209 71.5732719,67.445415 L60.9452147,61.2407454 C59.2302778,63.2327709 57.1393015,65.0199533 54.6802026,66.4498971 C52.2359474,67.8699451 49.6590888,68.8229111 47.0842094,69.3186909 L47.0861886,81.726051 L47.0861886,81.726051 Z M64.6769097,41.1275221 C67.1943936,46.7047977 66.3196075,53.2864975 62.7769218,58.7667942 L73.3010734,64.8992245 C78.956506,55.7248238 80.0074368,44.4762625 75.236686,34.9703524 L64.6769097,41.1275221 L64.6769097,41.1275221 Z M13.9986914,68.9159316 C12.4410972,66.1827104 11.3476146,63.3020416 10.6707439,60.3521021 C10.2551215,60.52231 9.84246792,60.706372 9.44762669,60.9448609 C5.08755035,63.4821452 3.59328905,69.1178061 6.11077299,73.5174809 C8.62627777,77.9240828 14.2025443,79.4312138 18.5576727,76.8790858 C18.9564723,76.654451 19.3216262,76.3872643 19.6719364,76.1082026 C17.4800234,74.047896 15.5612335,71.6432155 13.9986914,68.9159316 L13.9986914,68.9159316 Z M58.9304359,81.4826142 C50.0064304,85.6170814 40.3135235,86.0703093 31.8912335,83.3281818 C31.7249845,85.9446326 32.2939913,88.642229 33.6932532,91.0914407 C37.4655208,97.7038175 45.8244779,99.9570922 52.3675611,96.1491865 C57.5697675,93.105237 60.0437101,87.1321292 58.9304359,81.4826142 L58.9304359,81.4826142 Z M65.4517485,77.6786668 C69.7277108,81.4766767 76.0946493,82.3099035 81.300814,79.2679331 C87.8389494,75.4570586 90.0813309,67.0109892 86.305105,60.4075187 C84.9068327,57.9523695 82.8762206,56.1028436 80.5467563,54.946024 C78.692289,63.6850092 73.4455516,71.9400896 65.4517485,77.6786668 L65.4517485,77.6786668 Z M77.1356843,32.0867148 C80.1350923,37.332481 81.4541984,43.1274643 81.2721163,48.9066143 C83.8737142,48.6908857 86.4743227,47.907138 88.8839427,46.5009441 C97.6021162,41.4135109 100.586681,30.152085 95.5566605,21.3458083 C90.5177343,12.5375524 79.3701492,9.5213111 70.6519757,14.6037965 C68.2403765,16.0159278 66.2730974,17.8961307 64.7857631,20.0672703 C69.8236997,22.8014812 74.144193,26.8439174 77.1356843,32.0867148 L77.1356843,32.0867148 Z M32.2158147,19.5180531 C41.1328932,15.3885338 50.8258001,14.930358 59.2441318,17.6823813 C59.4153287,15.0570243 58.8492906,12.3564592 57.4520079,9.91120581 C53.6678653,3.30080819 45.3108874,1.0386272 38.7737416,4.85345996 C33.5665874,7.89048246 31.1005614,13.8715069 32.2158147,19.5180531 L32.2158147,19.5180531 Z M25.6885647,23.3229901 C21.4096337,19.523001 15.0486326,18.6937326 9.83752004,21.7347134 C3.29938468,25.5445983 1.05898231,33.9916573 4.83322906,40.5951278 C6.23545969,43.0443395 8.26409258,44.8918863 10.5975152,46.0566225 C12.4490138,37.3166477 17.6908033,29.0625569 25.6885647,23.3229901 L25.6885647,23.3229901 Z" id="path-2"></path>
    </defs>
    <g id="Page-1" stroke="none" stroke-width="1" fill="none" fill-rule="evenodd" sketch:type="MSPage">
        <g id="logo" sketch:type="MSArtboardGroup">
            <g id="Shape">
                <use fill="none" sketch:type="MSShapeGroup" xlink:href="#path-2"></use>
                <use fill="url(#linearGradient-1)" fill-rule="evenodd" xlink:href="#path-2"></use>
            </g>
        </g>
    </g>
</svg>