<svg xmlns="http://www.w3.org/2000/svg" width="250" height="250" viewBox="0 0 250 250">
  <path fill="#FFFFFF" fill-rule="evenodd" d="M122.636951,80.8278475 C113.838744,65.4076682 91.8464126,61.57287 73.5350673,72.2562332 C55.2236771,82.9291928 47.5229148,104.086009 56.329417,119.491659 C65.1463229,134.907713 87.1241256,138.746682 105.445874,128.065381 C123.757265,117.377848 131.44139,96.2439013 122.636951,80.8278475 L122.636951,80.8278475 Z M92.6695067,59.8456502 C106.262735,59.1078027 119.007937,64.4120628 126.419776,74.9021525 L148.588789,61.9615695 C136.48583,43.2074439 115.123274,33.3264126 92.6653363,34.0850224 L92.6695067,59.8456502 Z M49.3561435,119.842915 C44.0685202,108.134888 45.9038117,94.3026457 53.3364126,82.8024215 L31.2463677,69.9179372 C19.3741256,89.1729596 17.1647085,112.805202 27.1850673,132.766906 L49.3561435,119.842915 Z M86.2989686,34.5838565 C76.5654709,35.7769058 66.7820628,38.9777578 57.5786099,44.3381614 C48.3958744,49.7047982 40.755426,56.6634978 34.8650224,64.584574 L57.2003139,77.6145291 C60.7877578,73.4056502 65.198296,69.6706278 70.3425112,66.6692825 C75.4888341,63.6617489 80.9094619,61.6809417 86.2989686,60.6375785 L86.2989686,34.5838565 Z M86.2989686,140.471794 C72.7119731,141.220045 59.9543049,135.905381 52.5445291,125.436099 L30.3755157,138.353812 C42.4784753,157.103767 63.8389686,166.999372 86.2989686,166.232422 L86.2989686,140.471794 Z M92.6695067,165.746054 C102.403004,164.532242 112.184305,161.343857 121.398161,155.985561 C130.58713,150.623094 138.210987,143.649776 144.101345,135.75157 L121.77852,122.719552 C118.176547,126.903498 113.784709,130.65722 108.619731,133.660628 C103.485874,136.643229 98.0735426,138.644798 92.6653363,139.686143 L92.6695067,165.746054 Z M129.616457,80.4745291 C134.904126,92.1888341 133.066726,106.012735 125.625785,117.523363 L147.730404,130.403677 C159.608879,111.134126 161.816188,87.5080717 151.795874,67.5422422 L129.616457,80.4745291 Z M23.1735874,138.840179 C19.9020628,133.099462 17.6053363,127.049013 16.1836771,120.853049 C15.3107175,121.210583 14.443991,121.597175 13.6146637,122.098072 C4.45691928,127.427309 1.31841704,139.264215 6.60606278,148.505112 C11.8895516,157.760538 23.6017489,160.926054 32.7491031,155.565695 C33.5867713,155.093857 34.353722,154.532691 35.0895067,153.946547 C30.4856502,149.619148 26.4555157,144.568475 23.1735874,138.840179 L23.1735874,138.840179 Z M117.546771,165.234753 C98.8030942,173.91861 78.4443946,174.870583 60.7544843,169.111121 C60.4053363,174.606592 61.6004484,180.272511 64.539417,185.416771 C72.4625561,199.305112 90.019417,204.037803 103.762332,196.039821 C114.688879,189.646457 119.885067,177.100762 117.546771,165.234753 L117.546771,165.234753 Z M131.243901,157.245112 C140.225022,165.222287 153.597937,166.972377 164.53278,160.583139 C178.265247,152.578924 182.975112,134.839148 175.043632,120.969462 C172.106726,115.81278 167.841704,111.928117 162.948969,109.498341 C159.053901,127.853363 148.033857,145.192018 131.243901,157.245112 L131.243901,157.245112 Z M155.784484,61.4855605 C162.08435,72.5035874 164.854933,84.6751121 164.472511,96.8113453 C169.936816,96.3603139 175.399058,94.7141704 180.460135,91.7627354 C198.771525,81.073139 205.040179,57.4221525 194.475291,38.9278924 C183.891704,20.4252915 160.477668,14.0900897 142.166323,24.765157 C137.101076,27.7311211 132.969058,31.6802242 129.845112,36.2404036 C140.426637,41.9832287 149.501256,50.4738117 155.784484,61.4855605 L155.784484,61.4855605 Z M61.4362332,35.086861 C80.1653812,26.4113004 100.524036,25.4489686 118.20565,31.2313004 C118.565202,25.7170852 117.376323,20.0469955 114.441525,14.9069507 C106.493453,1.02273543 88.9407175,-3.72659193 75.2103139,4.28591928 C64.2733632,10.6647534 59.0938117,23.2270852 61.4362332,35.086861 L61.4362332,35.086861 Z M47.7266368,43.0806726 C38.7392825,35.0972646 25.3788341,33.3554709 14.4335874,39.7426457 C0.701112108,47.7447982 -4.00455605,65.484574 3.92274888,79.3563229 C6.86795067,84.5005381 11.1288341,88.3810314 16.0298655,90.8295067 C19.9186996,72.4703139 30.9283857,55.1337668 47.7266368,43.0806726 L47.7266368,43.0806726 Z" transform="translate(25 25)"/>
</svg>
